<svg width="380" height="489" viewBox="0 0 380 489" fill="none" xmlns="http://www.w3.org/2000/svg">
<g clip-path="url(#clip0_1_764)">
<path d="M0 0V339.892C0 339.892 29.1281 401.041 104.017 393.945C178.906 386.849 194.437 348.631 284.858 419.066C284.858 419.066 316.756 448.545 375 447.462V0H0Z" fill="#B5D9FB"/>
<path d="M362.975 459C315.547 459 287.443 435.235 287.143 434.961C230.946 386.976 196.497 396.127 148.829 408.811C136.186 412.174 123.1 415.655 108.178 418.575C35.2487 432.863 -0.640152 391.304 -1 390.873L-0.112374 390C0.23548 390.417 35.7405 431.442 107.95 417.298C122.848 414.377 135.898 410.91 148.529 407.547C196.533 394.784 231.21 385.568 287.874 433.945C288.222 434.244 322.324 463.054 378.88 456.81L379 458.101C373.446 458.726 368.097 459 362.975 459Z" fill="#85C4FE"/>
<path d="M194.047 354.597C233.273 354.597 265.073 353.357 265.073 351.827C265.073 350.297 233.273 349.057 194.047 349.057C154.82 349.057 123.021 350.297 123.021 351.827C123.021 353.357 154.82 354.597 194.047 354.597Z" fill="#F9F0E3"/>
<path opacity="0.5" d="M69.0867 349.93C93.9874 349.93 114.173 348.396 114.173 346.505C114.173 344.614 93.9874 343.081 69.0867 343.081C44.186 343.081 24 344.614 24 346.505C24 348.396 44.186 349.93 69.0867 349.93Z" fill="#F9EAD4"/>
<path d="M352.464 354.604C352.464 355.76 337.115 356.691 318.179 356.691C299.242 356.691 283.893 355.76 283.893 354.604C283.893 353.448 299.242 352.518 318.179 352.518C337.108 352.518 352.464 353.448 352.464 354.604Z" fill="#F9F0E3"/>
<path d="M269.373 188.824L267.789 191.558H270.949L269.373 188.824Z" fill="#E7CCA8"/>
<path d="M269.373 193.84L267.789 196.574H270.949L269.373 193.84Z" fill="#E7CCA8"/>
<path d="M272.649 190.881L271.182 193.84H274.109L272.649 190.881Z" fill="#E7CCA8"/>
<path d="M31.4237 205.131L29.8401 207.872H32.9999L31.4237 205.131Z" fill="#E7CCA8"/>
<path d="M31.4237 210.147L29.8401 212.881H32.9999L31.4237 210.147Z" fill="#E7CCA8"/>
<path d="M34.6997 207.188L33.2324 210.147H36.1597L34.6997 207.188Z" fill="#E7CCA8"/>
<path d="M266.213 309.9L264.637 312.634H267.789L266.213 309.9Z" fill="#E7CCA8"/>
<path d="M266.213 314.909L264.637 317.65H267.789L266.213 314.909Z" fill="#E7CCA8"/>
<path d="M269.489 311.951L268.029 314.909H270.949L269.489 311.951Z" fill="#E7CCA8"/>
<path d="M203.947 169.507C203.947 171.434 202.393 172.99 200.468 172.99C198.543 172.99 196.989 171.434 196.989 169.507C196.989 167.581 198.543 166.025 200.468 166.025C202.386 166.025 203.947 167.588 203.947 169.507Z" stroke="white" stroke-miterlimit="10"/>
<path d="M354.287 317.636H282.179C281.111 317.636 280.247 316.771 280.247 315.702C280.247 314.633 281.111 313.768 282.179 313.768H354.287C355.355 313.768 356.219 314.633 356.219 315.702C356.219 316.771 355.355 317.636 354.287 317.636Z" fill="#FEE6C6"/>
<path d="M292.138 351.827C291.055 351.827 290.162 351.165 290.118 350.322L288.244 316.443H296.031L294.157 350.322C294.106 351.165 293.22 351.827 292.138 351.827Z" fill="#FEE6C6"/>
<path d="M345.026 351.827C343.943 351.827 343.05 351.165 343.006 350.322L341.132 316.443H348.919L347.045 350.322C346.994 351.165 346.108 351.827 345.026 351.827Z" fill="#FEE6C6"/>
<path d="M318.237 351.827C317.154 351.827 316.261 351.165 316.217 350.322L314.343 316.443H322.13L320.256 350.322C320.212 351.165 319.319 351.827 318.237 351.827Z" fill="#FEE6C6"/>
<path d="M334.413 306.997C335.451 302.366 332.541 297.77 327.914 296.732C323.287 295.693 318.695 298.606 317.657 303.237C316.62 307.868 319.53 312.464 324.157 313.502C328.784 314.541 333.376 311.628 334.413 306.997Z" fill="#F9D8AC"/>
<path d="M330.36 298.057H321.505C321.011 298.057 320.612 297.657 320.612 297.163C320.612 296.669 321.011 296.269 321.505 296.269H330.36C330.854 296.269 331.254 296.669 331.254 297.163C331.254 297.657 330.854 298.057 330.36 298.057Z" fill="#F9D8AC"/>
<path d="M322.116 281.99C322.428 282.136 322.798 282.688 322.922 283.451C323.045 284.215 322.886 284.869 322.624 285.095C322.319 284.956 321.941 284.397 321.818 283.633C321.694 282.87 321.876 282.223 322.116 281.99Z" fill="#F9D8AC"/>
<path d="M322.697 285.019L322.518 285.049L323.323 289.948L323.502 289.919L322.697 285.019Z" fill="#F9D8AC"/>
<path d="M324.694 284.884C324.36 284.862 323.808 285.174 323.401 285.792C322.995 286.418 322.886 287.079 323.024 287.414C323.351 287.443 323.91 287.123 324.317 286.505C324.731 285.887 324.818 285.218 324.694 284.884Z" fill="#F9D8AC"/>
<path d="M320.597 285.56C320.91 285.429 321.527 285.545 322.116 286.003C322.704 286.461 323.016 287.057 322.995 287.421C322.697 287.559 322.065 287.435 321.476 286.977C320.888 286.519 320.59 285.916 320.597 285.56Z" fill="#F9D8AC"/>
<path d="M320.99 287.959C321.302 287.828 321.92 287.952 322.508 288.402C323.096 288.86 323.409 289.456 323.387 289.82C323.089 289.958 322.457 289.835 321.869 289.377C321.28 288.919 320.982 288.315 320.99 287.959Z" fill="#F9D8AC"/>
<path d="M325.094 287.29C324.76 287.268 324.208 287.581 323.801 288.199C323.394 288.817 323.285 289.485 323.423 289.82C323.75 289.849 324.309 289.529 324.716 288.911C325.123 288.286 325.217 287.617 325.094 287.29Z" fill="#F9D8AC"/>
<path d="M323.481 289.811L323.302 289.84L324.107 294.74L324.286 294.71L323.481 289.811Z" fill="#F9D8AC"/>
<path d="M325.486 289.675C325.152 289.653 324.6 289.966 324.193 290.584C323.786 291.209 323.677 291.87 323.815 292.205C324.142 292.234 324.702 291.921 325.108 291.296C325.515 290.678 325.61 290.009 325.486 289.675Z" fill="#F9D8AC"/>
<path d="M321.382 290.351C321.694 290.22 322.312 290.336 322.9 290.794C323.489 291.252 323.801 291.849 323.779 292.212C323.481 292.35 322.849 292.227 322.261 291.769C321.673 291.311 321.375 290.707 321.382 290.351Z" fill="#F9D8AC"/>
<path d="M321.781 292.757C322.094 292.627 322.711 292.75 323.3 293.201C323.888 293.659 324.2 294.255 324.179 294.619C323.881 294.757 323.249 294.633 322.66 294.175C322.072 293.717 321.767 293.106 321.781 292.757Z" fill="#F9D8AC"/>
<path d="M325.878 292.081C325.544 292.059 324.992 292.372 324.585 292.99C324.179 293.608 324.07 294.277 324.208 294.611C324.534 294.64 325.094 294.32 325.501 293.702C325.915 293.084 326.002 292.408 325.878 292.081Z" fill="#F9D8AC"/>
<path d="M324.272 294.601L324.093 294.63L324.898 299.53L325.078 299.5L324.272 294.601Z" fill="#F9D8AC"/>
<path d="M329.801 285.531C330.048 285.749 330.222 286.316 330.099 286.978C329.975 287.639 329.619 288.119 329.3 288.221C329.053 288.01 328.878 287.436 328.994 286.774C329.125 286.12 329.496 285.647 329.801 285.531Z" fill="#F9D8AC"/>
<path d="M329.224 288.176L328.443 292.423L328.622 292.456L329.403 288.209L329.224 288.176Z" fill="#F9D8AC"/>
<path d="M331.326 288.715C331.014 288.592 330.404 288.672 329.815 289.042C329.234 289.421 328.922 289.929 328.951 290.242C329.249 290.373 329.873 290.286 330.462 289.915C331.043 289.537 331.333 289.021 331.326 288.715Z" fill="#F9D8AC"/>
<path d="M327.237 287.959C327.571 287.952 328.116 288.243 328.53 288.803C328.944 289.362 329.053 289.951 328.915 290.235C328.588 290.249 328.036 289.951 327.622 289.391C327.208 288.832 327.12 288.243 327.237 287.959Z" fill="#F9D8AC"/>
<path d="M326.859 290.046C327.193 290.038 327.738 290.329 328.152 290.889C328.566 291.449 328.675 292.038 328.537 292.321C328.21 292.336 327.658 292.038 327.244 291.478C326.83 290.918 326.735 290.329 326.859 290.046Z" fill="#F9D8AC"/>
<path d="M330.941 290.794C330.629 290.671 330.019 290.751 329.43 291.122C328.849 291.5 328.537 292.009 328.566 292.321C328.864 292.452 329.488 292.365 330.077 291.994C330.658 291.623 330.956 291.1 330.941 290.794Z" fill="#F9D8AC"/>
<path d="M328.465 292.332L327.684 296.579L327.863 296.612L328.643 292.364L328.465 292.332Z" fill="#F9D8AC"/>
<path d="M330.563 292.866C330.251 292.743 329.641 292.823 329.053 293.193C328.471 293.571 328.159 294.08 328.188 294.393C328.486 294.524 329.111 294.437 329.699 294.066C330.28 293.695 330.571 293.179 330.563 292.866Z" fill="#F9D8AC"/>
<path d="M326.474 292.118C326.808 292.11 327.353 292.401 327.767 292.961C328.181 293.521 328.29 294.11 328.152 294.393C327.825 294.408 327.273 294.11 326.859 293.55C326.445 292.99 326.358 292.401 326.474 292.118Z" fill="#F9D8AC"/>
<path d="M327.696 296.484L326.916 300.731L327.094 300.764L327.875 296.517L327.696 296.484Z" fill="#F9D8AC"/>
<path d="M335.888 244.338C336.266 244.578 336.665 245.342 336.709 246.352C336.76 247.355 336.447 248.177 336.084 248.431C335.706 248.213 335.307 247.428 335.256 246.418C335.212 245.414 335.546 244.607 335.888 244.338Z" fill="#FEE6C6"/>
<path d="M336.199 248.336L335.96 248.348L336.272 254.803L336.511 254.791L336.199 248.336Z" fill="#FEE6C6"/>
<path d="M338.793 248.468C338.365 248.388 337.609 248.708 336.985 249.449C336.36 250.191 336.128 251.042 336.258 251.492C336.68 251.587 337.442 251.252 338.067 250.511C338.684 249.769 338.902 248.919 338.793 248.468Z" fill="#FEE6C6"/>
<path d="M333.396 248.73C333.818 248.613 334.602 248.853 335.292 249.529C335.982 250.206 336.302 251.027 336.215 251.492C335.808 251.623 335.009 251.369 334.319 250.693C333.622 250.017 333.324 249.188 333.396 248.73Z" fill="#FEE6C6"/>
<path d="M333.549 251.892C333.97 251.776 334.755 252.016 335.445 252.692C336.135 253.368 336.454 254.189 336.367 254.655C335.96 254.786 335.161 254.531 334.471 253.855C333.774 253.179 333.484 252.35 333.549 251.892Z" fill="#FEE6C6"/>
<path d="M338.946 251.63C338.517 251.55 337.762 251.87 337.137 252.612C336.513 253.353 336.28 254.204 336.411 254.655C336.832 254.749 337.595 254.415 338.22 253.673C338.837 252.932 339.055 252.081 338.946 251.63Z" fill="#FEE6C6"/>
<path d="M336.492 254.682L336.253 254.693L336.564 261.149L336.803 261.137L336.492 254.682Z" fill="#FEE6C6"/>
<path d="M339.098 254.785C338.67 254.705 337.914 255.025 337.29 255.767C336.665 256.508 336.433 257.359 336.563 257.81C336.985 257.904 337.747 257.57 338.372 256.828C338.99 256.087 339.207 255.229 339.098 254.785Z" fill="#FEE6C6"/>
<path d="M333.701 255.047C334.123 254.931 334.907 255.171 335.597 255.847C336.287 256.523 336.607 257.344 336.52 257.81C336.113 257.941 335.314 257.686 334.624 257.01C333.927 256.327 333.629 255.498 333.701 255.047Z" fill="#FEE6C6"/>
<path d="M333.854 258.21C334.275 258.093 335.06 258.333 335.75 259.009C336.44 259.685 336.76 260.507 336.672 260.972C336.266 261.103 335.467 260.849 334.776 260.172C334.079 259.496 333.781 258.668 333.854 258.21Z" fill="#FEE6C6"/>
<path d="M339.251 257.948C338.822 257.868 338.067 258.188 337.442 258.929C336.818 259.671 336.585 260.521 336.716 260.972C337.137 261.067 337.9 260.732 338.525 259.991C339.142 259.249 339.36 258.399 339.251 257.948Z" fill="#FEE6C6"/>
<path d="M336.81 260.971L336.571 260.983L336.883 267.438L337.122 267.426L336.81 260.971Z" fill="#FEE6C6"/>
<path d="M341.307 313.681H334.551C331.856 313.681 329.728 311.376 329.946 308.686L333.454 265.538H342.396L345.905 308.686C346.13 311.376 344.002 313.681 341.307 313.681Z" fill="#FEE6C6"/>
<path d="M343.319 265.669H332.539C331.907 265.669 331.399 265.16 331.399 264.527C331.399 263.895 331.907 263.386 332.539 263.386H343.319C343.951 263.386 344.459 263.895 344.459 264.527C344.459 265.153 343.951 265.669 343.319 265.669Z" fill="#FEE6C6"/>
<path d="M339.28 274.226C339.382 270.605 339.563 266.985 339.752 263.372C339.941 259.758 340.195 256.145 340.421 252.532C340.697 248.919 340.944 245.305 341.256 241.7L341.735 236.291C341.924 234.488 342.084 232.685 342.287 230.882C342.244 232.692 342.157 234.502 342.091 236.312L341.815 241.736C341.626 245.349 341.372 248.962 341.147 252.576C340.864 256.189 340.624 259.802 340.312 263.408C339.999 267.014 339.68 270.62 339.28 274.226Z" fill="#FEE6C6"/>
<path d="M339.622 270.082C339.077 262.848 338.866 255.607 338.735 248.366C338.634 241.125 338.619 233.884 338.939 226.636C339.484 233.869 339.694 241.11 339.825 248.351C339.919 255.593 339.934 262.834 339.622 270.082Z" fill="#FEE6C6"/>
<path d="M338.699 276.872C339.149 273.273 339.672 269.689 340.217 266.112C340.755 262.528 341.358 258.959 341.924 255.382C342.549 251.812 343.144 248.242 343.798 244.68L344.793 239.337C345.149 237.563 345.483 235.782 345.861 234.008C345.643 235.803 345.382 237.599 345.142 239.395L344.35 244.767C343.813 248.352 343.21 251.921 342.643 255.498C342.019 259.068 341.423 262.637 340.769 266.2C340.108 269.769 339.447 273.324 338.699 276.872Z" fill="#FEE6C6"/>
<path d="M337.362 226.745C337.362 227.166 337.021 227.508 336.6 227.508C336.178 227.508 335.837 227.166 335.837 226.745C335.837 226.323 336.178 225.981 336.6 225.981C337.021 225.981 337.362 226.323 337.362 226.745Z" stroke="#FEE6C6" stroke-miterlimit="10"/>
<path d="M341.452 224.876C342.463 224.876 343.283 224.056 343.283 223.044C343.283 222.033 342.463 221.212 341.452 221.212C340.441 221.212 339.622 222.033 339.622 223.044C339.622 224.056 340.441 224.876 341.452 224.876Z" stroke="#FEE6C6" stroke-miterlimit="10"/>
<path d="M345.135 232.481C345.468 232.481 345.738 232.211 345.738 231.877C345.738 231.544 345.468 231.274 345.135 231.274C344.802 231.274 344.532 231.544 344.532 231.877C344.532 232.211 344.802 232.481 345.135 232.481Z" stroke="#FEE6C6" stroke-miterlimit="10"/>
<path d="M347.198 244.906C347.198 245.218 346.943 245.473 346.631 245.473C346.319 245.473 346.065 245.218 346.065 244.906C346.065 244.593 346.319 244.339 346.631 244.339C346.943 244.339 347.198 244.593 347.198 244.906Z" stroke="#FEE6C6" stroke-miterlimit="10"/>
<path d="M332.699 240.115C333.245 240.115 333.687 239.672 333.687 239.126C333.687 238.58 333.245 238.137 332.699 238.137C332.153 238.137 331.711 238.58 331.711 239.126C331.711 239.672 332.153 240.115 332.699 240.115Z" stroke="#FEE6C6" stroke-miterlimit="10"/>
<path d="M308.968 285.095H283.792V312.547H308.968V285.095Z" fill="#F9D8AC"/>
<path d="M306.15 288.17H286.617V309.471H306.15V288.17Z" fill="#FEE6C6"/>
<path d="M55.3508 159.831H51.2975V339.213H55.3508V159.831Z" fill="#FEE6C6"/>
<path d="M74.0043 345.764H32.6512C32.6512 341.336 41.9127 337.752 53.3314 337.752C64.7502 337.752 74.0043 341.336 74.0043 345.764Z" fill="#FEE6C6"/>
<path d="M81.7694 162.295H24.8789L25.9322 158.602L26.1428 157.875L28.0532 151.187L28.2639 150.46L38.6802 114H69.4208L78.7403 150.46L78.9292 151.187L80.6362 157.875L80.8251 158.602L81.7694 162.295Z" fill="#FEE6C6"/>
<path d="M28.6125 152.822L26.6731 156.181H30.5447L28.6125 152.822Z" fill="#E5CAA6"/>
<path d="M32.9999 156.181L31.0605 152.822H34.9394L32.9999 156.181Z" fill="#E5CAA6"/>
<path d="M36.8715 152.822L34.9393 156.181H38.811L36.8715 152.822Z" fill="#E5CAA6"/>
<path d="M41.2662 156.181L39.3267 152.822H43.1984L41.2662 156.181Z" fill="#E5CAA6"/>
<path d="M45.1378 152.822L43.1984 156.181H47.07L45.1378 152.822Z" fill="#E5CAA6"/>
<path d="M49.5251 156.181L47.5857 152.822H51.4646L49.5251 156.181Z" fill="#E5CAA6"/>
<path d="M53.3968 152.822L51.4646 156.181H55.3362L53.3968 152.822Z" fill="#E5CAA6"/>
<path d="M57.7842 156.181L55.852 152.822H59.7236L57.7842 156.181Z" fill="#E5CAA6"/>
<path d="M61.6631 152.822L59.7236 156.181H63.5953L61.6631 152.822Z" fill="#E5CAA6"/>
<path d="M66.0504 156.181L64.111 152.822H67.9826L66.0504 156.181Z" fill="#E5CAA6"/>
<path d="M69.922 152.822L67.9826 156.181H71.8615L69.922 152.822Z" fill="#E5CAA6"/>
<path d="M74.3094 156.181L72.3773 152.822H76.2489L74.3094 156.181Z" fill="#E5CAA6"/>
<path d="M78.181 152.822L76.2488 156.181H80.1205L78.181 152.822Z" fill="#E5CAA6"/>
<path d="M78.9292 151.187H28.0532L28.2639 150.46H78.7404L78.9292 151.187Z" fill="#E5CAA6"/>
<path d="M80.8251 158.602H25.9322L26.1428 157.875H80.6362L80.8251 158.602Z" fill="#E5CAA6"/>
<path d="M88.19 268.707C89.6718 262.964 92.8606 257.831 96.1366 252.887C99.0422 248.496 102.086 244.127 105.921 240.521C109.756 236.908 114.485 234.065 119.686 233.265C118.415 237.366 117.144 241.466 115.873 245.566C114.601 249.667 113.287 253.854 110.781 257.337C108.158 260.972 104.359 263.632 100.306 265.537C96.2456 267.442 91.9018 268.642 87.5798 269.834" fill="#66A986"/>
<path d="M88.4594 268.781C90.6458 261.009 95.3964 253.942 100.19 247.523C102.667 244.2 105.391 241.074 108.689 238.552C110.251 237.352 118.219 232.067 119.011 234.56C119.36 235.665 117.428 239.657 117.101 240.711C116.491 242.681 115.895 244.651 115.27 246.614C114.101 250.3 112.83 254.03 110.556 257.199C105.21 264.622 95.883 267.261 87.5151 269.573C87.1809 269.668 87.319 270.191 87.6604 270.097C95.8395 267.836 104.716 265.291 110.302 258.413C115.815 251.63 117.435 241.467 119.955 233.339C120.021 233.128 119.81 232.968 119.621 233.004C111.755 234.444 105.66 239.613 100.844 245.771C95.5344 252.561 90.2899 260.267 87.9364 268.643C87.8347 268.97 88.3577 269.115 88.4594 268.781Z" fill="#66A986"/>
<path d="M79.474 288.01C85.2125 275.738 90.9437 263.459 96.6821 251.187C96.9799 250.554 96.0356 250.002 95.7378 250.634C89.9994 262.906 84.2682 275.186 78.5297 287.457C78.2392 288.09 79.1762 288.643 79.474 288.01Z" fill="#80B996"/>
<path d="M80.3021 261.598C80.6362 248.737 85.4885 235.738 88.7209 223.371C88.8081 223.03 88.2851 222.884 88.1979 223.226C84.951 235.658 80.0987 248.664 79.7646 261.598C79.75 261.947 80.2948 261.947 80.3021 261.598Z" fill="#80B996"/>
<path d="M71.6436 264.288C66.1667 259.417 60.6462 254.495 56.3532 248.548C52.0676 242.601 49.0531 235.469 49.2928 228.141C52.7867 233.688 60.1667 235.76 63.8059 241.212C65.0045 243.008 65.7236 245.08 66.4282 247.123C68.404 252.845 70.387 258.573 72.3628 264.295" fill="#66A986"/>
<path d="M71.8325 264.099C66.0868 258.988 60.2466 253.812 55.8811 247.414C53.7092 244.23 51.9295 240.747 50.8109 237.054C50.2298 235.135 49.8375 233.172 49.6487 231.18C49.4889 229.464 48.9804 228.846 50.2516 229.9C52.053 231.398 53.6002 233.012 55.5324 234.379C58.1837 236.247 60.9875 237.999 62.9851 240.609C65.5638 243.975 66.6098 248.512 67.9826 252.481C69.3555 256.443 70.7211 260.406 72.094 264.368C72.2102 264.695 72.7332 264.557 72.617 264.222C71.0916 259.817 69.5734 255.418 68.048 251.013C66.8495 247.537 65.9124 243.706 63.7405 240.674C59.9633 235.396 53.208 233.39 49.5179 227.995C49.3727 227.777 49.0095 227.85 49.0095 228.134C48.8932 243.735 60.6389 254.858 71.4402 264.477C71.709 264.717 72.1012 264.331 71.8325 264.099Z" fill="#66A986"/>
<path d="M60.9948 237.555C69.9511 255.811 75.8348 275.375 78.428 295.549C78.5152 296.233 79.6047 296.247 79.5176 295.549C76.9026 275.178 70.9825 255.447 61.9318 237.003C61.6267 236.37 60.6824 236.923 60.9948 237.555Z" fill="#80B996"/>
<path d="M77.1563 221.197C72.6745 205.472 72.8052 188.459 77.534 172.8C80.8245 177.533 83.3451 182.803 84.9722 188.329C86.7881 194.486 87.4927 201.037 86.425 207.369C85.3572 213.701 82.4371 219.801 77.7519 224.185" fill="#66A986"/>
<path d="M77.4183 221.125C75.1229 212.823 73.9898 204.266 74.1859 195.651C74.2949 191.034 74.7597 186.432 75.6023 181.888C75.9655 179.933 76.4014 177.992 76.8953 176.065C77.7452 172.786 78.3408 174.407 79.6047 176.588C88.009 191.041 90.4715 211.347 77.5491 223.997C77.2948 224.244 77.6798 224.629 77.934 224.382C92.2584 210.358 87.9727 187.741 77.7597 172.663C77.629 172.474 77.3311 172.495 77.2585 172.728C72.6024 188.599 72.4789 205.327 76.8808 221.271C76.9897 221.605 77.5127 221.46 77.4183 221.125Z" fill="#66A986"/>
<path d="M89.8323 264.288C88.641 256.378 91.1834 248.264 95.302 241.409C99.4206 234.553 105.05 228.751 110.629 223.022C111.987 233.942 109.67 245.291 104.142 254.8C102.624 257.417 100.822 259.94 98.4109 261.765C95.9993 263.59 92.8904 264.666 89.9194 264.128" fill="#80B996"/>
<path d="M90.1083 264.288C89.0695 256.022 91.5538 248.024 95.8685 241.009C98.0622 237.446 100.677 234.168 103.445 231.034C104.701 229.617 105.994 228.221 107.302 226.847C107.861 226.258 108.413 225.516 109.052 225.022C110.033 224.266 109.91 223.735 110.534 224.84C111.13 225.88 110.73 228.541 110.716 229.726C110.694 231.558 110.578 233.39 110.367 235.215C109.888 239.228 108.936 243.212 107.512 246.999C104.701 254.495 99.4205 264.942 89.9049 263.859C89.5562 263.822 89.5635 264.368 89.9049 264.404C98.6215 265.4 103.793 256.959 106.851 250.038C110.614 241.539 111.914 232.234 110.883 223.023C110.861 222.804 110.6 222.644 110.418 222.826C99.4786 234.08 87.4134 247.319 89.549 264.288C89.6071 264.629 90.1519 264.637 90.1083 264.288Z" fill="#80B996"/>
<path d="M81.362 250.147C80.6865 240.477 82.6332 230.764 85.8148 221.604C88.9964 212.444 93.3982 203.771 97.7856 195.119C100.698 205.014 101.628 215.65 99.173 225.668C96.7178 235.686 90.6525 245.007 81.7833 250.256" fill="#80B996"/>
<path d="M81.6386 250.147C81.0648 240.18 82.997 230.387 86.3165 221.023C88.0817 216.043 90.2027 211.194 92.4763 206.425C93.5659 204.128 94.699 201.852 95.8395 199.584C95.9702 199.322 97.1252 196.479 97.4012 196.494C98.3164 196.53 98.3745 198.304 98.5634 199.097C102.958 217.701 98.9339 239.38 81.6459 250.024C81.3481 250.205 81.6241 250.678 81.9219 250.496C100.895 238.82 103.699 214.895 98.0549 195.047C97.9968 194.829 97.6627 194.764 97.5537 194.982C88.8153 212.219 79.9462 230.285 81.0938 250.147C81.1156 250.496 81.6604 250.504 81.6386 250.147Z" fill="#80B996"/>
<path d="M75.4862 215.331C79.8372 240.682 80.5999 266.483 77.7888 292.052C77.7089 292.75 78.8057 292.743 78.8784 292.052C81.6968 266.389 80.8977 240.485 76.5394 215.04C76.4159 214.349 75.3699 214.64 75.4862 215.331Z" fill="#80B996"/>
<path d="M77.3014 223.596C73.1247 220.106 69.4855 214.181 68.5049 208.83C67.5243 203.48 67.8149 197.976 68.149 192.545C68.4904 187.115 68.8754 181.633 68.0909 176.246C72.1659 181.735 75.5944 187.704 78.2893 193.992C80.3305 198.754 81.9648 203.778 82.1464 208.954C82.328 214.13 80.9334 219.51 77.5121 223.4" fill="#80B996"/>
<path d="M77.4982 223.408C70.7429 217.446 68.1497 209.558 68.1133 200.725C68.0988 196.632 68.4693 192.553 68.6727 188.475C68.7743 186.432 68.847 184.389 68.8179 182.346C68.8107 181.757 68.2514 177.642 68.6145 177.424C69.922 176.639 79.1689 196.814 79.6846 198.297C82.5757 206.578 83.2004 216.05 77.3239 223.212C77.106 223.481 77.4837 223.866 77.7089 223.597C89.3528 209.406 77.2876 188.38 68.324 176.116C68.186 175.927 67.7792 175.956 67.8155 176.254C69.0286 185.77 66.9657 195.273 67.7138 204.796C68.2949 212.219 71.4983 218.849 77.106 223.793C77.3747 224.026 77.7597 223.64 77.4982 223.408Z" fill="#80B996"/>
<path d="M71.1635 260.928C73.2701 253.52 72.0279 243.422 68.4977 236.573C64.9675 229.732 59.4688 224.069 53.3671 219.372C53.7013 227.267 54.3114 235.272 56.9409 242.724C59.5777 250.183 64.1104 257.373 71.1635 260.928Z" fill="#80B996"/>
<path d="M71.4257 261.002C75.8276 244.128 66.4136 229.246 53.5639 219.184C53.3968 219.053 53.0845 219.118 53.099 219.38C53.7673 234.466 56.2079 253.23 71.0262 261.169C71.3385 261.336 71.6073 260.863 71.3022 260.696C64.5686 257.09 60.2466 250.685 57.5808 243.67C56.2079 240.056 55.329 236.269 54.7479 232.452C54.3556 229.864 54.1087 227.261 53.9271 224.651C53.869 223.8 53.7019 222.863 53.7673 222.012C53.8617 220.776 53.3896 220.42 54.6099 220.703C55.8375 220.987 57.8423 223.466 58.7357 224.317C60.0578 225.574 61.3217 226.897 62.513 228.279C65.1715 231.361 67.5177 234.793 69.1085 238.551C72.0431 245.458 72.8058 253.579 70.9027 260.856C70.8155 261.198 71.3385 261.343 71.4257 261.002Z" fill="#80B996"/>
<path d="M101.948 318.835C101.948 331.136 97.176 341.853 90.1228 347.429H67.8809C60.8277 341.853 56.0554 331.136 56.0554 318.835C56.0554 307.341 60.2248 297.229 66.5226 291.398H91.4739C97.7789 297.229 101.948 307.334 101.948 318.835Z" fill="#FEE6C6"/>
<path d="M68.6581 303.27L62.6873 313.63H74.6363L68.6581 303.27Z" stroke="#E6CAA6" stroke-miterlimit="10"/>
<path d="M68.6581 305.8L64.8664 312.372H72.4498L68.6581 305.8Z" stroke="#E6CAA6" stroke-width="0.5" stroke-miterlimit="10"/>
<path d="M77.2876 337.287L70.0673 341.46V333.121L77.2876 337.287Z" stroke="#E6CAA6" stroke-width="0.75" stroke-miterlimit="10"/>
<path d="M74.8905 337.287L71.2659 339.381V335.193L74.8905 337.287Z" stroke="#E6CAA6" stroke-width="0.5" stroke-miterlimit="10"/>
<path d="M87.4134 294.444L81.6314 304.47H93.2027L87.4134 294.444Z" stroke="#E6CAA6" stroke-miterlimit="10"/>
<path d="M87.4134 298.247L84.9219 302.565H89.9121L87.4134 298.247Z" stroke="#E6CAA6" stroke-width="0.5" stroke-miterlimit="10"/>
<path d="M87.4134 338.472L80.7742 323.197H94.0598L87.4134 338.472Z" stroke="#E6CAA6" stroke-miterlimit="10"/>
<path d="M87.4134 334.75L83.2004 325.059H91.6337L87.4134 334.75Z" stroke="#E6CAA6" stroke-width="0.5" stroke-miterlimit="10"/>
<path d="M65.3967 325.56C65.3967 324.543 66.2247 323.714 67.2417 323.714C68.2586 323.714 69.0867 324.543 69.0867 325.56C69.0867 326.578 68.2586 327.407 67.2417 327.407C66.2247 327.407 65.3967 326.578 65.3967 325.56Z" stroke="#E6CAA6" stroke-miterlimit="10"/>
<path d="M87.4134 316.254C89.0502 316.254 90.3771 314.926 90.3771 313.288C90.3771 311.65 89.0502 310.322 87.4134 310.322C85.7766 310.322 84.4498 311.65 84.4498 313.288C84.4498 314.926 85.7766 316.254 87.4134 316.254Z" stroke="#E6CAA6" stroke-miterlimit="10"/>
<path d="M75.4716 298.894C76.1095 298.894 76.6266 298.376 76.6266 297.738C76.6266 297.099 76.1095 296.582 75.4716 296.582C74.8337 296.582 74.3167 297.099 74.3167 297.738C74.3167 298.376 74.8337 298.894 75.4716 298.894Z" stroke="#E6CAA6" stroke-miterlimit="10"/>
<g opacity="0.25">
<path opacity="0.25" d="M93.1446 293.114C89.164 312.794 80.0406 331.42 66.8785 346.571C67.2054 346.862 67.5395 347.16 67.8809 347.429H90.1228C97.176 341.853 101.948 331.136 101.948 318.835C101.948 308.388 98.5053 299.097 93.1446 293.114Z" fill="#FEE6C6"/>
</g>
<path d="M91.4376 291.398H66.5662C65.8107 291.398 65.2006 290.787 65.2006 290.031V289.748C65.2006 288.992 65.8107 288.381 66.5662 288.381H91.4376C92.193 288.381 92.8032 288.992 92.8032 289.748V290.031C92.8105 290.787 92.193 291.398 91.4376 291.398Z" fill="#F9D8AC"/>
<path d="M93.0211 258.85C93.7184 256.48 94.5974 254.16 95.578 251.885C96.5513 249.609 97.67 247.392 98.8685 245.225C100.089 243.066 101.396 240.965 102.835 238.951C103.561 237.948 104.295 236.952 105.057 235.978C105.842 235.018 106.619 234.066 107.454 233.15C107.106 233.659 106.75 234.168 106.387 234.662L105.341 236.189C104.643 237.207 103.96 238.232 103.299 239.264C101.977 241.343 100.699 243.437 99.5005 245.582C98.2874 247.719 97.1688 249.907 96.0792 252.118C94.9969 254.335 94.0017 256.589 93.0211 258.85Z" fill="#66A986"/>
<path d="M75.5733 217.345C75.1738 215.113 74.8542 212.873 74.5491 210.634C74.2368 208.395 73.9753 206.149 73.7138 203.909C73.4741 201.663 73.2344 199.416 73.0455 197.163L72.7695 193.782C72.7041 192.655 72.6169 191.521 72.5734 190.394C72.7768 191.507 72.9366 192.626 73.1254 193.746L73.5976 197.105C73.9099 199.344 74.1714 201.59 74.4329 203.837C74.6726 206.083 74.9123 208.33 75.1012 210.591C75.2973 212.83 75.4716 215.084 75.5733 217.345Z" fill="#66A986"/>
<path d="M58.5251 230.031C59.7599 231.957 60.8568 233.964 61.8882 236.007C62.927 238.05 63.8422 240.143 64.6994 242.274C65.5347 244.404 66.3047 246.563 66.9584 248.759C67.278 249.856 67.5904 250.961 67.8737 252.066C68.1352 253.179 68.4039 254.291 68.6146 255.418L67.5323 252.168C67.1763 251.085 66.8059 250.009 66.4282 248.933C65.6582 246.788 64.8737 244.651 64.0311 242.543C63.203 240.427 62.3023 238.333 61.3943 236.247C60.4645 234.16 59.4984 232.103 58.5251 230.031Z" fill="#66A986"/>
<path d="M84.6386 240.885C85.779 238.115 86.9122 235.353 87.98 232.561C89.0478 229.769 90.101 226.978 91.0453 224.149C92.0477 221.336 92.9412 218.486 93.8129 215.636C94.2487 214.211 94.67 212.779 95.084 211.34L96.3116 207.021C96.0574 208.497 95.7378 209.958 95.4254 211.427C95.084 212.888 94.7208 214.342 94.3504 215.789C93.5804 218.69 92.6797 221.547 91.7281 224.389C90.7257 227.21 89.6725 230.024 88.4885 232.779C87.3117 235.52 86.0478 238.239 84.6386 240.885Z" fill="#66A986"/>
<path d="M220.741 211.652H165.732C152.41 211.652 141.609 222.463 141.609 235.796V294.822H244.872V235.796C244.872 222.463 234.071 211.652 220.741 211.652Z" fill="#5C6193"/>
<path d="M232.647 281.83H153.827V294.822H232.647V281.83Z" fill="#4E5567"/>
<path d="M232.647 294.822H147.718V327.843H232.647V294.822Z" fill="#8E97FD"/>
<path d="M239.373 332.736H147.108C144.406 332.736 142.219 330.548 142.219 327.843H244.262C244.262 330.548 242.068 332.736 239.373 332.736Z" fill="#3F414E"/>
<path d="M144.667 348.025H141.609L147.108 332.736H151.386L144.667 348.025Z" fill="#3F414E"/>
<path d="M241.814 348.025H244.872L239.373 332.736H235.095L241.814 348.025Z" fill="#3F414E"/>
<path d="M132.849 221.125C129.892 219.155 127.408 216.349 126.239 212.99C125.069 209.631 125.331 205.705 127.314 202.753C129.297 199.802 133.081 198.042 136.546 198.835C136.691 194.153 140.992 190.743 145.154 188.599C149.737 186.236 154.524 184.869 159.209 187.014C161.817 188.213 164.563 190.162 165.943 192.684C167.323 195.2 168.144 197.977 168.943 200.74C172.219 198.791 176.679 199.089 179.672 201.452C182.664 203.815 183.979 208.09 182.846 211.732C186.55 210.162 191.039 209.464 194.446 211.608C198.027 213.862 199.262 218.493 199.509 222.724C199.72 226.359 199.357 230.213 197.294 233.208C194.853 236.756 190.531 238.428 186.441 239.773C179.366 242.092 172.081 244.033 164.635 244.251C157.19 244.469 149.519 242.855 143.418 238.588C137.309 234.32 133.001 227.166 133.219 219.715" fill="#4E5567"/>
<path d="M128.948 226.417C125.244 226.614 121.728 228.962 120.123 232.313C118.517 235.665 118.88 239.874 121.038 242.891C117.958 242.935 114.972 244.767 113.534 247.493C112.096 250.22 112.278 253.717 113.977 256.283C115.416 258.45 117.762 259.86 120.195 260.776C126.943 263.313 134.614 262.455 141.311 259.787C145.161 258.253 148.858 256.079 151.452 252.852C154.045 249.624 155.396 245.211 154.277 241.219C153.493 238.435 151.597 236.072 149.36 234.255C147.115 232.437 144.522 231.107 141.943 229.82C137.498 227.602 132.842 225.407 127.873 225.32" fill="#3F4553"/>
<path d="M150.776 275.251H129.391C122.643 275.251 117.173 269.777 117.173 263.023C117.173 256.269 122.643 250.794 129.391 250.794H146.338C148.793 250.794 150.783 252.786 150.783 255.244V275.251H150.776Z" fill="#8E97FD"/>
<path d="M153.827 327.843H139.597C134.636 327.843 130.612 323.815 130.612 318.85V250.787H144.841C149.803 250.787 153.827 254.815 153.827 259.78V327.843Z" fill="#8E97FD"/>
<path d="M156.34 189.878C158.272 189.42 160.451 189.769 162.166 190.947C163.008 191.536 163.749 192.299 164.221 193.208C164.505 193.637 164.65 194.131 164.832 194.596C164.97 195.076 165.064 195.578 165.144 196.058C164.904 195.614 164.752 195.149 164.505 194.727C164.25 194.313 164.047 193.877 163.742 193.506C163.212 192.721 162.522 192.066 161.752 191.536C160.989 190.998 160.117 190.612 159.209 190.343C158.294 190.096 157.335 189.922 156.34 189.878Z" fill="white"/>
<path d="M188.679 213.818C190.713 213.782 192.819 214.538 194.359 215.999C194.751 216.356 195.064 216.792 195.376 217.214C195.623 217.686 195.914 218.13 196.052 218.638C196.255 219.126 196.32 219.649 196.4 220.158C196.451 220.674 196.429 221.19 196.415 221.692C196.19 220.696 195.964 219.722 195.529 218.849C195.129 217.962 194.562 217.17 193.858 216.516C193.168 215.847 192.354 215.301 191.483 214.858C190.589 214.436 189.659 214.066 188.679 213.818Z" fill="white"/>
<path d="M176.439 203.146C176.89 203.211 177.318 203.371 177.732 203.575C178.146 203.778 178.524 204.047 178.858 204.36C179.192 204.68 179.468 205.073 179.657 205.494C179.853 205.916 179.926 206.388 179.911 206.839C179.766 206.41 179.643 205.989 179.403 205.625C179.17 205.262 178.916 204.92 178.597 204.622C177.979 204.026 177.238 203.553 176.439 203.146Z" fill="white"/>
<path d="M187.495 234.691C188.41 231.362 188.112 227.596 186.18 224.731C184.248 221.867 180.543 220.136 177.202 221.009C178.226 218.602 176.744 215.731 174.58 214.255C172.422 212.779 169.749 212.321 167.192 211.74C159.681 210.031 152.483 206.941 146.069 202.674C142.822 200.514 142.285 201.002 140.752 197.519C139.837 198.864 138.042 201.052 137.992 202.717C135.093 200.071 129.282 199.795 127.306 202.746C125.323 205.698 125.062 209.624 126.231 212.983C127.401 216.341 129.885 219.148 132.842 221.118L133.205 219.708C132.987 227.159 137.294 234.313 143.403 238.581C149.512 242.848 157.183 244.462 164.621 244.244C171.485 244.041 178.212 242.376 184.764 240.296C185.977 238.573 186.943 236.705 187.495 234.691Z" fill="#3F4553"/>
<path d="M147.224 259.78V319.41H135.602V269.115H132.413C129.05 269.115 126.326 266.389 126.326 263.023C126.326 259.657 129.05 256.93 132.413 256.93H144.377C145.953 256.93 147.224 258.203 147.224 259.78Z" stroke="#8C96FF" stroke-miterlimit="10"/>
<path d="M159.398 210.438C158.912 206.628 161.323 203.182 164.781 202.739C168.246 202.295 171.449 205.014 171.943 208.824C172.43 212.634 170.018 216.08 166.56 216.523C163.095 216.967 159.892 214.24 159.398 210.438Z" fill="#8E97FD"/>
<path d="M159.398 210.44C159.885 214.249 163.095 216.976 166.56 216.525C167.999 216.343 169.248 215.631 170.192 214.606C165.892 211.843 165.137 204.987 164.999 202.726C164.926 202.733 164.861 202.733 164.788 202.741C161.323 203.184 158.912 206.63 159.398 210.44Z" fill="#8E97FD"/>
<path d="M150.166 226.178L152.606 237.185L161.163 239.628C161.163 239.628 164.221 236.567 164.221 235.956C164.221 235.345 159.943 223.728 159.943 223.728L150.166 226.178Z" fill="#FDBCA0"/>
<path d="M159.936 223.735L150.159 226.178L150.994 229.936C152.744 230.693 154.72 231.252 156.972 231.529C158.2 231.681 159.464 231.449 160.539 230.823C161.091 230.504 161.606 230.111 162.1 229.697C161.025 226.694 159.936 223.735 159.936 223.735Z" fill="#DF8370"/>
<path d="M136.72 204.164C136.72 204.164 135.5 228.017 156.885 229.238C163.604 226.796 167.882 217.621 166.662 210.278C165.442 202.942 157.495 190.707 145.887 194.378C139.778 196.828 136.72 204.164 136.72 204.164Z" fill="#FDBCA0"/>
<path d="M204.543 231.689L220.08 212.677C220.698 211.921 221.039 210.976 221.039 209.995V204.833C221.039 204.44 221.293 204.084 221.664 203.96C222.26 203.764 222.87 204.208 222.87 204.833V208.453L228.368 198.668L235.698 198.057L225.92 215.178L211.255 240.864L204.543 231.689Z" fill="#FDBCA0"/>
<path d="M272.976 214.56L298.639 223.124L306.535 216.465C309.491 213.971 313.828 213.731 316.9 216.08C318.68 217.439 319.617 219.351 317.576 221.903C312.687 228.017 298.632 234.742 298.632 234.742L269.91 228.628L272.976 214.56Z" fill="#FDBCA0"/>
<path opacity="0.5" d="M269.925 228.628L284.184 231.667C285.099 226.527 284.387 221.336 283.726 218.152L272.983 214.568L269.925 228.628Z" fill="#DF8370"/>
<path d="M194.156 258.595C194.156 258.595 226.327 222.819 240.717 210.605C243.114 208.569 246.223 207.581 249.361 207.835C259.981 208.693 282.143 212.728 282.143 212.728C282.143 212.728 286.421 228.628 278.474 237.803C273.586 237.192 251.591 232.91 251.591 232.91L206.984 281.83L194.156 258.595Z" fill="#739BE0"/>
<path d="M279.695 245.749L300.469 268.984L317.794 271.958C321.012 272.51 323.031 275.913 321.752 278.922C320.924 280.864 318.941 283.481 314.525 282.441C304.138 279.998 294.36 276.938 294.36 276.938L269.918 257.367L279.695 245.749Z" fill="#FDBCA0"/>
<path opacity="0.5" d="M292.494 260.064L279.695 245.749L269.918 257.367L287.002 271.049C289.821 268.134 292.21 264.419 292.494 260.064Z" fill="#DF8370"/>
<path opacity="0.2" d="M240.579 217.679L195.667 261.321L206.991 281.83L251.598 232.91C251.598 232.91 273.593 237.192 278.482 237.803C278.99 237.221 279.441 236.603 279.855 235.97C271.864 229.435 262.327 221.932 255.223 216.69C250.748 213.397 244.56 213.811 240.579 217.679Z" fill="#739BE0"/>
<path d="M176.439 278.159C176.439 278.159 187.437 294.059 203.323 292.227C218.155 290.511 234.579 269.079 246.143 250.816C247.327 248.94 249.978 248.73 251.453 250.38C260.547 260.58 276.644 275.716 276.644 275.716C276.644 275.716 291.92 268.381 291.92 256.756C287.707 251.696 270.128 233.55 259.617 222.768C255.085 218.115 247.748 217.715 242.729 221.838L193.538 262.259L176.439 278.159Z" fill="#97B8FF"/>
<g opacity="0.5">
<path opacity="0.5" d="M203.323 292.227C218.155 290.511 234.579 269.079 246.143 250.816C247.327 248.94 249.978 248.73 251.453 250.38C260.547 260.58 276.644 275.716 276.644 275.716C276.644 275.716 280.203 274 283.886 270.925C275.7 262.768 267.027 255.105 257.918 248.003C254.969 245.705 251.467 243.335 247.799 244.062C244.61 244.702 242.366 247.486 240.412 250.089C236.184 255.716 231.964 261.343 227.736 266.97C223.124 273.114 218.25 279.475 211.342 282.826C205.451 285.676 198.383 285.996 192.26 283.692C187.509 281.903 183.383 278.544 180.587 274.313L176.439 278.166C176.439 278.159 187.437 294.059 203.323 292.227Z" fill="#97B8FF"/>
</g>
<path d="M235.705 275.251H257.09C263.838 275.251 269.307 269.777 269.307 263.023C269.307 256.269 263.838 250.794 257.09 250.794H240.143C237.688 250.794 235.698 252.786 235.698 255.244V275.251H235.705Z" fill="#8E97FD"/>
<path d="M232.647 327.843H246.877C251.838 327.843 255.862 323.815 255.862 318.85V250.787H241.632C236.671 250.787 232.647 254.815 232.647 259.78V327.843Z" fill="#8E97FD"/>
<path d="M238.727 259.78V319.41H250.349V269.115H253.538C256.901 269.115 259.625 266.389 259.625 263.023C259.625 259.657 256.901 256.93 253.538 256.93H241.574C239.998 256.93 238.727 258.203 238.727 259.78Z" stroke="#8C96FF" stroke-miterlimit="10"/>
<path d="M142.219 215.171L131.832 218.232C131.832 218.232 134.89 228.628 150.166 235.353L151.996 234.742C151.996 234.742 160.546 239.533 162.689 231.325C166.146 230.118 170.497 229.115 173.904 228.424C177.427 227.712 181.081 228.272 184.226 229.995L196.444 236.705C197.599 237.337 199.044 237.068 199.894 236.058L208.211 226.178L216.695 232.568L204.935 251.303C204.173 252.525 202.596 252.954 201.318 252.292L189.885 246.36L196.604 256.756C196.604 256.756 195.993 275.716 176.439 278.159C169.72 271.434 161.163 262.87 156.275 259.199C151.386 255.527 135.5 245.131 131.222 240.849C126.943 236.567 115.946 221.278 115.336 213.332C115.336 209.049 139.778 205.996 139.778 205.996L142.219 215.171Z" fill="#FFFFFE"/>
<path d="M138.311 239.031C125.541 230.271 120.13 218.828 117.842 210.954C116.302 211.688 115.336 212.488 115.336 213.339C115.946 221.292 126.943 236.574 131.222 240.856C135.5 245.138 151.386 255.534 156.275 259.206C157.146 259.86 158.141 260.674 159.209 261.605C156.602 256.065 150.863 247.646 138.311 239.031Z" fill="#F2F2F2"/>
<path d="M178.219 238.464C178.727 238.319 179.25 238.239 179.781 238.195C180.311 238.144 180.841 238.152 181.379 238.203C182.439 238.304 183.514 238.573 184.48 239.097C185.454 239.591 186.311 240.347 186.935 241.241C187.284 241.67 187.509 242.172 187.763 242.652C188.003 243.139 188.134 243.67 188.323 244.179L188.272 244.077C188.868 244.884 189.42 245.727 189.993 246.549C190.567 247.377 191.105 248.221 191.642 249.079C190.967 248.33 190.299 247.574 189.667 246.803C189.035 246.025 188.374 245.262 187.763 244.469L187.742 244.448L187.705 244.368C187.509 243.902 187.357 243.415 187.132 242.957C186.885 242.521 186.681 242.056 186.354 241.67C186.086 241.249 185.722 240.907 185.374 240.544C184.981 240.238 184.611 239.904 184.161 239.671C183.296 239.17 182.337 238.806 181.32 238.632C180.311 238.457 179.265 238.377 178.219 238.464Z" fill="#97B8FF"/>
<path d="M154.197 211.994C154.735 212.844 155.2 214.56 156.558 214.291C157.023 214.197 157.241 213.84 157.597 213.564C158.846 212.59 159.5 214.088 158.614 214.909C158.156 215.331 157.517 215.433 156.928 215.498C156.587 215.534 156.58 216.08 156.928 216.043C157.786 215.949 158.686 215.752 159.238 215.025C159.681 214.444 159.769 213.644 159.282 213.063C158.832 212.539 158.163 212.452 157.597 212.83C157.066 213.179 156.769 214.008 155.904 213.637C155.287 213.375 154.996 212.234 154.669 211.718C154.481 211.427 154.008 211.696 154.197 211.994Z" fill="#444359"/>
<path d="M151.313 220.013C154.154 222.397 158.105 221.881 160.204 218.813C160.401 218.522 159.928 218.246 159.732 218.537C157.851 221.292 154.263 221.779 151.698 219.627C151.43 219.402 151.045 219.787 151.313 220.013Z" fill="#444359"/>
<path d="M144.725 210.38C145.386 208.679 147.057 207.741 148.858 208.061C149.2 208.119 149.345 207.595 149.004 207.537C146.897 207.166 144.972 208.242 144.202 210.242C144.071 210.561 144.602 210.7 144.725 210.38Z" fill="#444359"/>
<path d="M146.461 215.214L145.016 214.378L146.679 214.524L146.461 215.214Z" fill="#444359"/>
<path d="M146.81 215.418C147.58 213.339 149.701 212.379 151.793 213.084C152.127 213.193 152.272 212.67 151.938 212.561C149.556 211.761 147.151 212.932 146.287 215.28C146.163 215.6 146.686 215.745 146.81 215.418Z" fill="#444359"/>
<path d="M147.754 213.215L147.108 211.317L148.386 212.859L147.754 213.215Z" fill="#444359"/>
<path d="M150.74 212.626L151.183 211.317L151.466 212.677L150.74 212.626Z" fill="#444359"/>
<path d="M161.737 208.162L162.754 206.832L162.398 208.468L161.737 208.162Z" fill="#444359"/>
<path d="M162.514 208.351C160.212 207.45 157.749 208.461 156.769 210.729C156.631 211.049 157.103 211.325 157.241 211.005C158.134 208.94 160.27 208.053 162.376 208.875C162.696 209.006 162.834 208.475 162.514 208.351Z" fill="#444359"/>
<path d="M159.362 208.315L159.079 206.33L160.052 208.082L159.362 208.315Z" fill="#444359"/>
<path d="M157.161 210.474L156.34 209.355L157.611 209.907L157.161 210.474Z" fill="#444359"/>
<path d="M221.925 214.567L229.153 191.885C229.342 191.296 229.879 190.889 230.504 190.874L243.47 190.532C244.465 190.503 245.191 191.463 244.901 192.415L237.695 215.978C237.499 216.61 236.903 217.032 236.242 217.01L223.255 216.479C222.296 216.421 221.635 215.483 221.925 214.567Z" fill="#3F4553"/>
<path d="M220.705 214.568L227.933 191.885C228.121 191.296 228.659 190.889 229.284 190.874L242.25 190.533C243.245 190.503 243.971 191.463 243.681 192.416L236.475 215.978C236.279 216.61 235.683 217.032 235.022 217.01L222.034 216.48C221.068 216.421 220.414 215.484 220.705 214.568Z" fill="#4E5567"/>
<path d="M241.327 194.226L236.497 210.009L235.807 212.277L235.48 213.346C235.363 213.724 235.073 214.008 234.724 214.124C234.586 214.168 234.448 214.189 234.303 214.182L231.594 214.073L223.763 213.753C222.979 213.717 222.448 212.954 222.681 212.212L226.422 200.463L227.838 196.021L228.55 193.797C228.579 193.702 228.623 193.608 228.681 193.528C228.884 193.201 229.24 192.99 229.64 192.975L230.017 192.968L240.165 192.699C240.971 192.677 241.56 193.455 241.327 194.226Z" fill="#F2EDE4"/>
<g opacity="0.35">
<path opacity="0.35" d="M236.497 210.009L235.807 212.277L228.681 193.528C228.884 193.201 229.24 192.99 229.64 192.975L230.017 192.968L236.497 210.009Z" fill="white"/>
</g>
<g opacity="0.35">
<path opacity="0.35" d="M234.724 214.124C234.586 214.168 234.448 214.189 234.303 214.182L231.594 214.073L226.422 200.463L227.838 196.021L234.724 214.124Z" fill="white"/>
</g>
<path d="M139.553 218.69C142.074 212.961 142.742 206.432 141.442 200.304C142.35 203.219 145.524 204.869 148.553 205.254C151.582 205.64 154.655 205.102 157.706 205.254C160.756 205.407 164.054 206.483 165.594 209.122C165.877 209.602 166.19 210.198 166.742 210.242C167.432 210.3 167.839 209.486 167.984 208.81C169.11 203.742 167.032 198.181 163.074 194.822C159.115 191.463 153.507 190.293 148.444 191.434C143.381 192.575 138.921 195.905 136.059 200.231C134.265 202.943 133.052 206.076 132.871 209.326C132.689 212.568 133.59 215.92 135.616 218.457C136.118 219.082 136.735 219.686 137.519 219.86C138.304 220.035 139.263 219.591 139.386 218.791" fill="#3F4553"/>
<path d="M139.484 225.997C143.242 225.23 145.62 221.33 144.796 217.286C143.972 213.241 140.258 210.585 136.501 211.352C132.743 212.118 130.365 216.019 131.188 220.063C132.012 224.107 135.727 226.764 139.484 225.997Z" fill="#8E97FD"/>
<path d="M135.246 215.672C131.12 203.081 136.285 198.333 136.517 198.028L136.67 198.013H136.706L136.858 198.006C136.684 198.246 134.607 203.953 137.999 214.306L135.246 215.672Z" fill="#8E97FD"/>
<path d="M143.955 222.71C133.277 225.545 131.519 219.824 131.541 215.694C131.033 217.025 130.888 218.537 131.2 220.071C132.028 224.12 135.74 226.774 139.495 226.01C141.435 225.603 143.004 224.367 143.955 222.71Z" fill="#8E97FD"/>



</g>
<defs>
<clipPath id="clip0_1_764">
<rect width="380" height="489" fill="white"/>
</clipPath>
</defs>
</svg>
